<svg xmlns="http://www.w3.org/2000/svg" width="16" height="12"><defs><filter id="a"><feFlood flood-color="#41CDB8" flood-opacity="1" result="floodOut"/><feComposite operator="atop" in="floodOut" in2="SourceGraphic" result="compOut"/><feBlend in="compOut" in2="SourceGraphic"/></filter></defs><g filter="url(#a)"><path fill-rule="evenodd" fill="#666" d="M13.999 11.42c1.097 0 1.994-.803 1.994-1.792V2.245c0-.987-.893-1.792-1.994-1.792H1.993C.896.453 0 1.255 0 2.245v7.383c0 .986.892 1.792 1.993 1.792h12.006zM2.037 2.947a.41.41 0 01-.056-.623.528.528 0 01.692-.051l5.323 4.068 5.327-4.064a.532.532 0 01.692.051.412.412 0 01-.056.623l-3.802 2.9 3.818 3.233a.408.408 0 01.02.623.529.529 0 01-.692.021L9.401 6.427l-1.089.832a.527.527 0 01-.632 0l-1.089-.832-3.902 3.301a.529.529 0 01-.693-.021.412.412 0 01.021-.623l3.818-3.233-3.798-2.904z"/></g></svg>