<svg xmlns="http://www.w3.org/2000/svg" width="12" height="15"><path fill-rule="evenodd" fill="#00FFD8" d="M5.786.003C2.798.108.315 2.432.029 5.398a5.98 5.98 0 00.08 1.719s.009.064.04.187c.092.412.231.812.404 1.187.601 1.42 1.992 3.797 5.113 6.382.191.16.472.16.666 0 3.121-2.582 4.512-4.959 5.116-6.385.176-.375.311-.772.404-1.187.028-.12.04-.187.04-.187.071-.369.108-.747.108-1.135C12 2.604 9.197-.117 5.786.003zm.213 8.952c-1.61 0-2.914-1.3-2.914-2.905a2.909 2.909 0 012.914-2.905c1.61 0 2.914 1.3 2.914 2.905a2.909 2.909 0 01-2.914 2.905z"/></svg>