<svg xmlns="http://www.w3.org/2000/svg" width="22" height="28"><path fill-rule="evenodd" fill="#00FFD7" d="M10.608.812C5.452.995 1.169 5.066.675 10.262a10.626 10.626 0 00.138 3.01s.016.113.069.329c.16.721.399 1.421.697 2.078 1.037 2.488 3.437 6.651 8.821 11.18a.89.89 0 001.149 0c5.384-4.524 7.784-8.686 8.827-11.185.303-.657.537-1.352.697-2.079.048-.21.069-.328.069-.328a10.69 10.69 0 00.186-1.987c0-5.913-4.836-10.679-10.72-10.468zm.367 15.68c-2.778 0-5.028-2.277-5.028-5.088s2.25-5.089 5.028-5.089c2.777 0 5.027 2.278 5.027 5.089 0 2.811-2.25 5.088-5.027 5.088z"/></svg>