<svg xmlns="http://www.w3.org/2000/svg" width="14" height="13"><defs><filter id="a"><feFlood flood-color="#41CDB8" flood-opacity="1" result="floodOut"/><feComposite operator="atop" in="floodOut" in2="SourceGraphic" result="compOut"/><feBlend in="compOut" in2="SourceGraphic"/></filter></defs><g filter="url(#a)"><path fill-rule="evenodd" fill="#666" d="M12.994 10.675c-.368 1.202-1.747 2.075-3.277 2.074a4.16 4.16 0 01-.448-.025c-1.86-.245-4.037-1.416-5.828-3.133C1.556 7.939.279 5.944.027 4.253-.229 2.541.607 1.265 2.262.838A1.07 1.07 0 012.53.805c.969 0 2.124 1.255 2.525 2.156.261.586.241 1.038-.057 1.306-.75.673-1.029 1.083-.997 1.46.037.421.464.907 1.189 1.604.093.089.216.208.356.336.13.118.254.228.364.324.811.709 1.339 1.092 1.814 1.092.396 0 .824-.256 1.529-.915.106-.1.303-.219.635-.219.874 0 2.108.782 2.712 1.512.366.443.502.862.394 1.214z"/></g></svg>